<?xml version="1.0" encoding="UTF-8"?><svg xmlns="http://www.w3.org/2000/svg" xmlns:xlink="http://www.w3.org/1999/xlink" contentScriptType="text/ecmascript" width="375" zoomAndPan="magnify" contentStyleType="text/css" viewBox="0 0 375 374.999991" height="374.999991" preserveAspectRatio="xMidYMid meet" version="1.0"><defs><clipPath id="clip-0"><path d="M 264 267 L 350.121094 267 L 350.121094 375 L 264 375 Z M 264 267 " clip-rule="nonzero"/></clipPath><clipPath id="clip-1"><path d="M 278 0 L 350.121094 0 L 350.121094 324 L 278 324 Z M 278 0 " clip-rule="nonzero"/></clipPath><clipPath id="clip-2"><path d="M 21.621094 2 L 278 2 L 278 375 L 21.621094 375 Z M 21.621094 2 " clip-rule="nonzero"/></clipPath><clipPath id="clip-3"><path d="M 82 120.234375 L 136 120.234375 L 136 243 L 82 243 Z M 82 120.234375 " clip-rule="nonzero"/></clipPath><clipPath id="clip-4"><path d="M 104 207 L 219.785156 207 L 219.785156 277.734375 L 104 277.734375 Z M 104 207 " clip-rule="nonzero"/></clipPath><clipPath id="clip-5"><path d="M 82 120.234375 L 136 120.234375 L 136 243 L 82 243 Z M 82 120.234375 " clip-rule="nonzero"/></clipPath></defs><path fill="rgb(25.099182%, 66.668701%, 32.939148%)" d="M 101.707031 1.578125 L 101.707031 6.835938 L 107.738281 3.640625 Z M 101.707031 1.578125 " fill-opacity="1" fill-rule="nonzero"/><path fill="rgb(13.729858%, 12.159729%, 12.548828%)" d="M 101.707031 1.578125 L 101.054688 1.578125 L 101.054688 6.835938 C 101.054688 7.066406 101.175781 7.28125 101.367188 7.398438 C 101.566406 7.515625 101.8125 7.523438 102.011719 7.417969 L 108.042969 4.21875 C 108.273438 4.097656 108.40625 3.847656 108.382812 3.589844 C 108.363281 3.335938 108.191406 3.109375 107.945312 3.023438 L 101.917969 0.960938 C 101.714844 0.894531 101.496094 0.925781 101.328125 1.050781 C 101.15625 1.175781 101.054688 1.367188 101.054688 1.578125 L 101.707031 1.578125 L 101.496094 2.199219 L 106.101562 3.773438 L 102.359375 5.753906 L 102.359375 1.578125 L 101.707031 1.578125 L 101.496094 2.199219 L 101.707031 1.578125 " fill-opacity="1" fill-rule="nonzero"/><path fill="rgb(25.099182%, 66.668701%, 32.939148%)" d="M 264.753906 374.167969 L 279.417969 267.980469 L 349.535156 323.070312 Z M 264.753906 374.167969 " fill-opacity="1" fill-rule="nonzero"/><g clip-path="url(#clip-0)"><path fill="rgb(13.729858%, 12.159729%, 12.548828%)" d="M 264.753906 374.167969 L 265.402344 374.257812 L 279.90625 269.195312 L 348.390625 323 L 264.417969 373.613281 L 264.753906 374.167969 L 265.402344 374.257812 L 264.753906 374.167969 L 265.097656 374.726562 L 349.871094 323.625 C 350.054688 323.515625 350.171875 323.320312 350.1875 323.105469 C 350.203125 322.898438 350.105469 322.6875 349.9375 322.554688 L 279.820312 267.46875 C 279.636719 267.324219 279.386719 267.289062 279.171875 267.375 C 278.953125 267.460938 278.800781 267.660156 278.769531 267.890625 L 264.105469 374.082031 C 264.078125 374.332031 264.1875 374.574219 264.398438 374.710938 C 264.605469 374.851562 264.875 374.855469 265.097656 374.726562 L 264.753906 374.167969 " fill-opacity="1" fill-rule="nonzero"/></g><path fill="rgb(25.099182%, 66.668701%, 32.939148%)" d="M 333.492188 1.578125 L 349.535156 323.070312 L 279.417969 267.980469 L 279.417969 6.835938 L 333.492188 1.578125 " fill-opacity="1" fill-rule="nonzero"/><g clip-path="url(#clip-1)"><path fill="rgb(13.729858%, 12.159729%, 12.548828%)" d="M 333.492188 1.578125 L 332.839844 1.613281 L 348.8125 321.671875 L 280.070312 267.660156 L 280.070312 7.433594 L 333.554688 2.230469 L 333.492188 1.578125 L 332.839844 1.613281 L 333.492188 1.578125 L 333.425781 0.929688 L 279.351562 6.191406 C 279.019531 6.222656 278.765625 6.507812 278.765625 6.835938 L 278.765625 267.980469 C 278.765625 268.179688 278.855469 268.371094 279.015625 268.492188 L 349.132812 323.582031 C 349.332031 323.738281 349.609375 323.761719 349.835938 323.644531 C 350.0625 323.527344 350.199219 323.289062 350.1875 323.035156 L 334.144531 1.546875 C 334.136719 1.367188 334.054688 1.199219 333.921875 1.089844 C 333.78125 0.972656 333.605469 0.910156 333.425781 0.929688 L 333.492188 1.578125 " fill-opacity="1" fill-rule="nonzero"/></g><path fill="rgb(25.099182%, 66.668701%, 32.939148%)" d="M 276.667969 3.640625 L 264.753906 374.167969 L 279.417969 269.984375 L 279.417969 6.835938 L 276.667969 3.640625 " fill-opacity="1" fill-rule="nonzero"/><path fill="rgb(13.729858%, 12.159729%, 12.548828%)" d="M 276.667969 3.640625 L 276.015625 3.621094 L 264.101562 374.148438 C 264.089844 374.492188 264.355469 374.789062 264.699219 374.820312 C 265.042969 374.851562 265.355469 374.601562 265.402344 374.257812 L 280.0625 270.074219 L 280.070312 269.984375 L 280.070312 6.835938 C 280.070312 6.683594 280.011719 6.535156 279.910156 6.414062 L 277.164062 3.21875 C 276.988281 3.011719 276.703125 2.9375 276.449219 3.027344 C 276.199219 3.113281 276.027344 3.347656 276.015625 3.621094 L 276.667969 3.640625 L 276.175781 4.066406 L 278.765625 7.082031 L 278.765625 269.9375 L 265.792969 362.089844 L 277.320312 3.664062 L 276.667969 3.640625 L 276.175781 4.066406 L 276.667969 3.640625 " fill-opacity="1" fill-rule="nonzero"/><path fill="rgb(25.099182%, 66.668701%, 32.939148%)" d="M 107.738281 3.640625 L 101.707031 1.578125 L 187.980469 0.703125 L 333.492188 1.578125 L 279.417969 6.835938 L 276.652344 3.640625 L 107.738281 3.640625 " fill-opacity="1" fill-rule="nonzero"/><path fill="rgb(13.729858%, 12.159729%, 12.548828%)" d="M 107.738281 3.640625 L 107.945312 3.023438 L 105.511719 2.191406 L 187.988281 1.351562 L 187.980469 0.703125 L 187.976562 1.351562 L 320.84375 2.152344 L 279.6875 6.160156 L 277.148438 3.21875 C 277.027344 3.074219 276.84375 2.988281 276.652344 2.988281 L 107.738281 2.988281 L 107.738281 3.640625 L 107.945312 3.023438 L 107.738281 3.640625 L 107.738281 4.292969 L 276.359375 4.292969 L 278.921875 7.265625 C 279.058594 7.421875 279.269531 7.507812 279.476562 7.488281 L 333.554688 2.230469 C 333.898438 2.191406 334.160156 1.894531 334.144531 1.550781 C 334.128906 1.207031 333.84375 0.929688 333.496094 0.925781 L 187.980469 0.0507812 L 187.972656 0.0507812 L 101.699219 0.925781 C 101.382812 0.929688 101.113281 1.164062 101.0625 1.476562 C 101.011719 1.785156 101.195312 2.089844 101.496094 2.199219 L 107.523438 4.261719 L 107.738281 4.292969 L 107.738281 3.640625 " fill-opacity="1" fill-rule="nonzero"/><path fill="rgb(25.099182%, 66.668701%, 32.939148%)" d="M 29.886719 3.640625 L 28.734375 251.957031 L 22.332031 335.273438 L 264.753906 374.167969 L 271.15625 281.246094 L 276.667969 3.640625 L 29.886719 3.640625 " fill-opacity="1" fill-rule="nonzero"/><g clip-path="url(#clip-2)"><path fill="rgb(13.729858%, 12.159729%, 12.548828%)" d="M 29.886719 3.640625 L 29.234375 3.640625 L 28.082031 251.9375 L 21.679688 335.222656 C 21.652344 335.558594 21.894531 335.863281 22.230469 335.914062 L 264.652344 374.8125 C 264.835938 374.839844 265.019531 374.792969 265.160156 374.675781 C 265.304688 374.566406 265.390625 374.394531 265.40625 374.214844 L 271.808594 281.289062 L 271.808594 281.257812 L 277.320312 3.65625 C 277.328125 3.480469 277.253906 3.308594 277.136719 3.1875 C 277.015625 3.0625 276.84375 2.988281 276.667969 2.988281 L 29.886719 2.988281 C 29.53125 2.988281 29.242188 3.28125 29.234375 3.640625 L 29.886719 3.640625 L 29.886719 4.292969 L 276 4.292969 L 270.503906 281.230469 L 271.15625 281.246094 L 270.511719 281.203125 L 264.152344 373.414062 L 23.027344 334.722656 L 29.386719 252.007812 L 29.386719 251.960938 L 30.539062 3.644531 L 29.886719 3.640625 L 29.886719 4.292969 L 29.886719 3.640625 " fill-opacity="1" fill-rule="nonzero"/></g><path fill="rgb(13.729858%, 12.159729%, 12.548828%)" d="M 92.035156 33.566406 C 105.867188 42.296875 98.660156 62.09375 100.273438 75.421875 C 101.214844 83.183594 104.867188 91.777344 110.269531 97.507812 C 127.75 116.089844 154.222656 117.078125 178.015625 113.105469 C 194.296875 110.359375 211.191406 100.007812 217.015625 83.921875 C 223.152344 66.960938 218.121094 49.617188 225.386719 32.234375 C 226.945312 28.5 220.890625 26.894531 219.351562 30.5625 C 213.769531 43.933594 213.003906 55.269531 213.585938 69.28125 C 214.445312 90.535156 194.488281 102.8125 176.347656 107.054688 C 146.722656 114.011719 107.492188 104.265625 105.992188 68.78125 C 105.382812 54.515625 109.78125 37.386719 95.191406 28.167969 C 91.769531 26 88.632812 31.429688 92.035156 33.566406 " fill-opacity="1" fill-rule="nonzero"/><g clip-path="url(#clip-3)"><path fill="rgb(100%, 100%, 100%)" d="M 107.382812 204.289062 C 107.382812 204.289062 167.042969 174.65625 111.421875 120.363281 C 111.421875 120.363281 110.605469 136.894531 94.359375 154.828125 C 78.113281 172.761719 72.792969 218.71875 119.007812 242.539062 C 119.007812 242.539062 80.355469 217.035156 114.246094 168.558594 C 114.246094 168.558594 118.28125 187.964844 107.382812 204.289062 " fill-opacity="1" fill-rule="nonzero"/></g><path fill="rgb(100%, 100%, 100%)" d="M 129.792969 218.140625 C 129.792969 218.140625 172.28125 225.769531 164.292969 176.027344 C 164.292969 176.027344 157.484375 184.3125 142.109375 187.371094 C 126.730469 190.425781 106.222656 212.285156 121.078125 242.539062 C 121.078125 242.539062 110.804688 214.332031 147.15625 202.199219 C 147.15625 202.199219 141.765625 213.859375 129.792969 218.140625 " fill-opacity="1" fill-rule="nonzero"/><path fill="rgb(100%, 100%, 100%)" d="M 135.949219 170.273438 C 132.367188 193.046875 108.9375 204.925781 107.945312 205.417969 L 103.707031 207.519531 L 106.335938 203.585938 C 114.238281 191.75 114.035156 178.058594 113.445312 171.992188 C 103.582031 187.046875 99.84375 201.28125 102.324219 214.339844 C 105.234375 229.679688 116.054688 238.753906 118.964844 240.949219 C 111.960938 225.164062 114.785156 212.933594 118.53125 205.347656 C 121.277344 199.785156 125.429688 195.003906 130.1875 191.523438 C 131.839844 186.511719 134.234375 182.277344 137.417969 178.859375 C 144.023438 171.757812 152.921875 168.207031 164.121094 168.207031 C 171.507812 168.207031 177.667969 170.011719 182.601562 173.617188 C 187.535156 177.230469 190.898438 182.148438 192.6875 188.386719 L 218.136719 183.621094 C 215.597656 171.957031 209.898438 162.820312 201.042969 156.210938 C 192.183594 149.601562 179.875 146.296875 164.121094 146.296875 C 152.359375 146.296875 142.492188 148.300781 134.480469 152.269531 C 136.367188 158.410156 136.871094 164.417969 135.949219 170.273438 " fill-opacity="1" fill-rule="nonzero"/><g clip-path="url(#clip-4)"><path fill="rgb(100%, 100%, 100%)" d="M 164.554688 207.351562 L 164.554688 228.742188 L 193.898438 228.742188 L 193.898438 244.851562 C 190.03125 247.851562 185.402344 250.410156 180.007812 252.515625 C 174.605469 254.621094 169.230469 255.675781 163.859375 255.675781 C 153.011719 255.675781 144.238281 251.910156 137.546875 244.375 C 132.203125 238.359375 129.03125 229.90625 127.953125 219.089844 L 125.367188 218.625 C 124.738281 219.582031 124.179688 220.574219 123.683594 221.601562 C 118.6875 231.921875 122.226562 242.007812 122.261719 242.109375 C 123.054688 243.976562 124.277344 245.675781 124.277344 245.675781 C 121.125 245.207031 118.429688 243.660156 118.429688 243.660156 C 113 240.859375 108.398438 237.808594 104.425781 234.617188 C 105.53125 238.285156 106.886719 241.863281 108.546875 245.324219 C 113.507812 255.691406 120.925781 263.660156 130.796875 269.226562 C 140.660156 274.800781 152.234375 277.585938 165.503906 277.585938 C 175.949219 277.585938 186.265625 275.609375 196.453125 271.652344 C 206.636719 267.699219 214.414062 263.125 219.78125 257.925781 L 219.78125 207.351562 L 164.554688 207.351562 " fill-opacity="1" fill-rule="nonzero"/></g><g clip-path="url(#clip-5)"><path fill="rgb(100%, 100%, 100%)" d="M 107.382812 204.289062 C 107.382812 204.289062 167.042969 174.65625 111.421875 120.363281 C 111.421875 120.363281 110.605469 136.894531 94.359375 154.828125 C 78.113281 172.761719 72.792969 218.71875 119.007812 242.539062 C 119.007812 242.539062 80.355469 217.035156 114.246094 168.558594 C 114.246094 168.558594 118.28125 187.964844 107.382812 204.289062 " fill-opacity="1" fill-rule="nonzero"/></g><path fill="rgb(100%, 100%, 100%)" d="M 129.792969 218.140625 C 129.792969 218.140625 172.28125 225.769531 164.292969 176.027344 C 164.292969 176.027344 157.484375 184.3125 142.109375 187.371094 C 126.730469 190.425781 106.222656 212.285156 121.078125 242.539062 C 121.078125 242.539062 110.804688 214.332031 147.15625 202.199219 C 147.15625 202.199219 141.765625 213.859375 129.792969 218.140625 " fill-opacity="1" fill-rule="nonzero"/></svg>